<svg width="140" height="40" viewBox="0 0 140 40" fill="none" xmlns="http://www.w3.org/2000/svg">
<path d="M52.3731 9.49989C52.2631 8.38419 51.8859 7.50126 51.2413 6.85117C50.5967 6.20108 49.7059 5.87357 48.569 5.86864C47.212 5.86864 46.1516 6.37618 45.3878 7.39129C44.624 8.40639 44.2416 9.98031 44.2405 12.1131C44.2405 14.2676 44.6337 15.8524 45.4202 16.8675C45.7724 17.3521 46.2445 17.7454 46.794 18.0122C47.3435 18.2789 47.9534 18.4108 48.569 18.396C49.71 18.396 50.6307 19.0678 51.2983 18.396C51.9661 17.7243 53.0516 18.8059 53.1596 17.5659L56.3053 16.8867C56.1758 18.3945 59.2351 17.378 58.6615 18.5662C58.0879 19.7544 56.3223 20.2679 55.3739 21.0951C54.4256 21.9222 53.7085 22.2226 52.4071 22.6665C51.1056 23.1105 50.1896 23.7586 48.5967 23.7586C46.7463 23.7586 45.1657 23.8814 43.7239 23.3235C42.3351 22.8028 41.0907 21.9808 40.0878 20.9219C39.0749 19.8243 38.3104 18.5369 37.8426 17.1412C37.3286 15.6615 37.0716 13.9928 37.0716 12.1353C37.048 10.4417 37.3153 8.75589 37.8627 7.14568C38.3374 5.74457 39.1098 4.45319 40.131 3.35311C41.1372 2.29896 42.3793 1.47735 43.764 0.950023C45.1971 0.391674 46.8285 0.112991 48.6584 0.113978C50.1181 0.097079 51.5703 0.31567 52.9545 0.760619C54.1891 1.16212 55.3301 1.79147 56.313 2.61324C57.2598 3.41377 57.3123 3.46705 57.8288 4.20543C58.4981 5.15985 58.4965 5.31818 59.0917 6.88669L52.3731 9.49989Z" fill="#969696"/>
<path d="M86.5125 0.512039V23.7586H79.5638V6.1498H73.6902V14.5192C73.6902 17.6759 73.055 20.0573 71.7842 21.6633C70.514 23.2693 68.565 24.0713 65.9384 24.0693C65.293 24.0693 64.6791 24.0486 64.0973 24.0072C63.5319 23.9678 62.9701 23.8852 62.418 23.7601L62.7404 18.2422C62.9695 18.2829 63.2016 18.3091 63.4343 18.3206C63.661 18.3309 63.8707 18.3354 64.0652 18.3354C65.0337 18.3354 65.7712 18.0256 66.2778 17.4061C66.7845 16.7866 67.0378 15.774 67.0366 14.3683V0.512039H86.5125Z" fill="#969696"/>
<path d="M102.437 0.109522C104.076 0.0871111 105.705 0.371068 107.232 0.945572C108.628 1.48087 109.885 2.30257 110.914 3.35309C111.966 4.44228 112.769 5.72994 113.272 7.13379C113.821 8.61355 114.096 10.2822 114.096 12.1397C114.096 13.9973 113.816 15.6659 113.257 17.1456C112.744 18.5458 111.942 19.8319 110.897 20.9263C109.876 21.9772 108.624 22.7979 107.232 23.3295C104.141 24.4462 100.731 24.4462 97.6392 23.3295C96.2508 22.8004 94.9999 21.9863 93.9739 20.9441C92.9255 19.8547 92.128 18.5662 91.6316 17.1619C91.0826 15.6743 90.808 14.0007 90.808 12.1412C90.808 10.2817 91.0826 8.61302 91.6316 7.13529C92.1346 5.73089 92.9376 4.44271 93.9891 3.35309C95.0193 2.30418 96.2762 1.48401 97.6719 0.950008C99.1882 0.375802 100.806 0.090332 102.437 0.109522ZM102.437 5.88047C101.784 5.86336 101.136 5.99481 100.546 6.26412C99.9567 6.53337 99.4421 6.93284 99.044 7.42973C98.1877 8.4606 97.7598 10.0291 97.7598 12.1353C97.7598 14.2631 98.201 15.8386 99.084 16.8616C99.4827 17.349 99.9936 17.7413 100.577 18.0075C101.159 18.2737 101.798 18.4067 102.444 18.396C103.864 18.396 105.005 17.8846 105.867 16.8616C106.73 15.8386 107.161 14.2631 107.16 12.1353C107.175 11.2055 107.061 10.2779 106.821 9.37708C106.634 8.67105 106.305 8.00723 105.85 7.42382C105.455 6.92585 104.939 6.52728 104.349 6.26221C103.749 5.99725 103.096 5.86285 102.437 5.86863V5.88047Z" fill="#969696"/>
<path d="M125.336 0.512039V9.25278H133.088V0.512039H140V23.7586H133.088V14.9868H125.336V23.7586H118.396V0.512039H125.336Z" fill="#969696"/>
<path d="M43.5877 12.4682C43.7418 13.1474 43.8405 13.8473 44.0672 14.5043C44.8829 16.8556 46.3093 17.9225 48.7519 18.0779C51.2191 18.2362 53.3548 17.1441 54.3463 15.0755C54.7334 14.2705 54.9971 14.0841 55.7758 14.6878C56.7766 15.4632 57.8699 16.132 58.9478 16.8097C59.4489 17.1234 59.492 17.4016 59.2222 17.9166C57.0634 22.0184 51.7357 24.7145 46.812 24.1521C41.6107 23.5603 37.1204 19.7988 36.0178 15.1155C35.9492 14.6961 35.7686 14.3011 35.4935 13.9687V21.5153C35.4935 23.4907 35.4935 23.4907 33.3763 23.4907C31.6971 23.4907 30.0178 23.4597 28.3401 23.504C27.6477 23.5233 27.4503 23.2998 27.472 22.6576C27.5166 21.4206 27.4472 20.1791 27.4951 18.942C27.5213 18.2865 27.2916 18.1149 26.6207 18.0956C23.9562 18.0172 23.9577 17.992 23.9562 20.586C23.9562 23.4907 23.9562 23.4907 20.8721 23.4907C19.5382 23.4907 18.2028 23.4582 16.8705 23.504C16.175 23.5292 15.9808 23.285 16.0039 22.6517C16.0471 21.4561 15.9885 20.256 16.0301 19.0589C16.0532 18.396 15.8759 18.1163 15.1049 18.0927C12.4835 18.0068 12.4835 17.9758 12.4835 20.4987C12.4835 23.4922 12.4835 23.4922 9.34856 23.4907C8.05784 23.4907 6.76409 23.4434 5.47651 23.507C4.67929 23.5455 4.4449 23.3147 4.46032 22.5466C4.50966 20.1095 4.48037 17.6724 4.4819 15.2353V13.8251C3.1974 14.0012 2.04859 14.3564 0.835018 14.3357C0.232089 14.3253 -0.0393075 14.1877 0.0285416 13.5751C0.0717251 13.2048 0.0717251 12.8311 0.0285416 12.4608C-0.0886519 11.536 0.124147 11.0314 1.24983 10.7946C2.66078 10.4987 3.39632 9.36968 3.71706 8.03493C3.75686 7.78986 3.7826 7.54287 3.79417 7.29505C4.31228 2.65613 6.77954 0.467611 11.64 0.440976C16.8474 0.411382 22.0548 0.440976 27.2607 0.440976C27.4596 0.8479 27.0725 0.966282 26.8829 1.12905C23.6724 3.87099 25.495 9.31046 29.3779 11.0092C29.8266 11.2045 30.0687 11.1039 30.2553 10.6614C30.4851 10.1169 30.078 10.0696 29.7341 9.89941C26.9215 8.53213 25.6909 5.86862 26.721 3.33977C27.5259 1.36137 29.1882 0.47057 31.273 0.14355C34.7781 -0.406909 37.7094 0.6363 40.1289 3.09117C41.1852 4.63601 42.1474 6.22669 42.5869 8.04825C42.9415 9.51613 43.2561 10.9944 43.5877 12.4682Z" fill="#0CB02A"/>
<path d="M10.1049 34.7529H8.38398V39.67H4.62146V26.826H8.38398V31.8171H10.2005L13.394 26.826H17.3709L13.1843 33.0275L17.4094 39.67H13.1458L10.1049 34.7529Z" fill="black"/>
<path d="M31.6545 26.826L26.1033 36.752C25.5173 37.8164 24.8002 38.6239 23.9521 39.1743C23.1363 39.7147 22.1678 40.0027 21.1765 40C20.3629 39.9845 19.5595 39.8229 18.8079 39.5236L19.7069 36.8437C20.1403 36.9764 20.5908 37.0506 21.0454 37.0642C21.3901 37.0702 21.7302 36.9879 22.0307 36.826C22.3504 36.6356 22.6212 36.3787 22.8234 36.0743L17.6221 26.826H21.619L24.7355 33.0275L27.9737 26.826H31.6545Z" fill="black"/>
<path d="M35.9383 26.8068L38.3284 30.2931L40.7047 26.8068H45.1025L40.7047 32.9477L45.4849 39.6642H41.0239L38.3284 35.8657L35.6514 39.6642H31.2983L36.0586 33.1134L31.5975 26.8068H35.9383Z" fill="black"/>
<path d="M59.3801 26.826V39.67H55.5944V34.6612H50.4317V39.67H46.6461V26.826H50.4317V31.6514H55.5944V26.826H59.3801Z" fill="black"/>
<path d="M62.2484 26.826H65.9766V34.3726L71.5036 26.826H75.0592V39.67H71.3309V32.1471L65.8239 39.67H62.2484V26.826Z" fill="black"/>
<path d="M87.9445 36.2518C87.5476 36.0427 87.2191 35.731 86.9967 35.3522C86.764 34.9538 86.6452 34.5036 86.6525 34.047C86.6446 33.5919 86.7634 33.1428 86.9967 32.7464C87.2197 32.3691 87.5482 32.0591 87.9445 31.8511C88.3651 31.6333 88.8366 31.5227 89.3141 31.53C89.7269 31.5237 90.1353 31.6092 90.5074 31.7801C90.8516 31.9419 91.1401 32.1957 91.3371 32.5111L90.8207 32.8499C90.6607 32.613 90.4371 32.4222 90.1729 32.298C89.9062 32.1753 89.6141 32.1125 89.319 32.1145C88.9651 32.1083 88.6166 32.1914 88.3069 32.3557C88.0112 32.5139 87.7694 32.7508 87.61 33.0378C87.4458 33.3514 87.3603 33.6975 87.3603 34.0485C87.3603 34.3994 87.4458 34.7456 87.61 35.0591C87.77 35.3448 88.0118 35.5805 88.3069 35.7384C88.6154 35.9007 88.9626 35.9833 89.3141 35.9781C89.6093 35.9808 89.9014 35.9196 90.1686 35.799C90.4323 35.6776 90.6565 35.4887 90.8159 35.253L91.3371 35.5919C91.1389 35.908 90.848 36.1616 90.5014 36.3214C90.1311 36.492 89.7244 36.5776 89.3141 36.5714C88.8366 36.5793 88.3651 36.4692 87.9445 36.2518Z" fill="#0BAF29"/>
<path d="M96.6799 29.929V36.5242H95.9708V30.5313H94.3503V29.929H96.6799Z" fill="#0BAF29"/>
<path d="M102.549 30.728C103.033 31.3032 103.276 32.1151 103.277 33.1637C103.297 33.8064 103.163 34.4449 102.884 35.0296C102.647 35.5119 102.264 35.9142 101.784 36.1838C101.28 36.452 100.711 36.5869 100.134 36.5745C99.453 36.5745 98.9094 36.4551 98.5046 36.2163L98.7882 35.6704C99.1167 35.8775 99.5591 35.9811 100.123 35.9811C100.883 35.9811 101.479 35.7502 101.91 35.2886C102.343 34.8269 102.559 34.1566 102.56 33.2776C102.56 33.1148 102.549 32.9358 102.53 32.7405C102.362 33.0969 102.075 33.3898 101.715 33.5736C101.32 33.7765 100.877 33.8784 100.429 33.8695C100.014 33.8773 99.6021 33.7933 99.2258 33.6239C98.8894 33.4724 98.6052 33.2322 98.4058 32.9314C98.2064 32.6203 98.104 32.2607 98.1113 31.8956C98.1016 31.525 98.2052 31.1598 98.4082 30.8444C98.6112 30.5292 98.9058 30.2774 99.2555 30.1199C99.6312 29.95 100.043 29.865 100.458 29.8713C101.368 29.8723 102.065 30.1579 102.549 30.728ZM101.46 33.1133C101.711 32.9973 101.924 32.8184 102.077 32.5955C102.227 32.3759 102.306 32.1182 102.303 31.8556C102.303 31.6086 102.23 31.3667 102.091 31.1587C101.939 30.935 101.726 30.7557 101.474 30.6407C101.167 30.5021 100.831 30.4342 100.492 30.4425C100.051 30.4236 99.6191 30.5628 99.2803 30.8331C99.1276 30.9621 99.007 31.1219 98.927 31.3011C98.847 31.4802 98.81 31.6742 98.8173 31.8689C98.8088 32.0638 98.8458 32.2581 98.9258 32.4373C99.0058 32.6166 99.127 32.7763 99.2803 32.9047C99.6336 33.1802 100.08 33.3218 100.535 33.3028C100.855 33.3099 101.172 33.2451 101.46 33.1133Z" fill="#0BAF29"/>
<path d="M108.529 30.7281C109.013 31.3032 109.256 32.1151 109.256 33.1637C109.276 33.8083 109.141 34.4488 108.862 35.0356C108.625 35.5178 108.242 35.9202 107.763 36.1898C107.259 36.458 106.689 36.5928 106.113 36.5804C105.432 36.5804 104.888 36.461 104.483 36.2223L104.767 35.6763C105.095 35.8834 105.538 35.987 106.102 35.987C106.862 35.987 107.457 35.7561 107.889 35.2945C108.321 34.8328 108.537 34.1625 108.539 33.2835C108.539 33.1208 108.528 32.9418 108.508 32.7464C108.34 33.103 108.053 33.396 107.693 33.5795C107.298 33.7824 106.856 33.8843 106.407 33.8754C105.992 33.8833 105.581 33.7992 105.205 33.6298C104.868 33.4787 104.583 33.2385 104.384 32.9373C104.185 32.6262 104.083 32.2667 104.09 31.9015C104.084 31.5253 104.191 31.1554 104.398 30.8361C104.602 30.5274 104.894 30.2806 105.239 30.1243C105.615 29.9545 106.026 29.8694 106.441 29.8757C107.349 29.8738 108.045 30.1579 108.529 30.7281ZM107.434 33.1074C107.685 32.9914 107.898 32.8124 108.051 32.5896C108.201 32.3699 108.28 32.1123 108.276 31.8497C108.277 31.6027 108.204 31.3607 108.065 31.1527C107.913 30.929 107.699 30.7498 107.448 30.6348C107.141 30.4964 106.805 30.4285 106.466 30.4366C106.025 30.4176 105.593 30.5569 105.254 30.8272C105.102 30.9562 104.981 31.116 104.901 31.2952C104.821 31.4743 104.784 31.6683 104.792 31.863C104.782 32.0579 104.82 32.2521 104.9 32.4314C104.98 32.6107 105.101 32.7704 105.254 32.8988C105.611 33.1714 106.06 33.3089 106.515 33.285C106.831 33.2968 107.146 33.2381 107.434 33.1134V33.1074Z" fill="#0BAF29"/>
<path d="M114.161 33.3161C114.347 33.4836 114.494 33.6876 114.592 33.9142C114.689 34.1409 114.734 34.385 114.725 34.6301C114.736 34.989 114.634 35.3427 114.433 35.6454C114.232 35.948 113.94 36.1856 113.596 36.3273C113.166 36.507 112.7 36.5934 112.231 36.5804C111.751 36.5837 111.274 36.5061 110.822 36.351C110.423 36.2231 110.06 36.0119 109.757 35.7325L110.1 35.1953C110.36 35.4403 110.671 35.6286 111.013 35.7473C111.402 35.8905 111.815 35.9623 112.231 35.9589C112.794 35.9589 113.229 35.842 113.538 35.6052C113.689 35.489 113.81 35.3402 113.89 35.1707C113.97 35.0013 114.009 34.8161 114 34.6301C114.008 34.4462 113.97 34.2632 113.89 34.0962C113.809 33.9292 113.689 33.783 113.538 33.6698C113.229 33.4374 112.766 33.3205 112.142 33.3205H111.652V32.8218L113.556 30.5313H110.042V29.929H114.459V30.4099L112.515 32.7553C113.236 32.7938 113.784 32.9807 114.161 33.3161Z" fill="#0BAF29"/>
<path d="M122.423 32.1619H119.468V36.5242H118.77V31.5685H122.423V32.1619Z" fill="#0BAF29"/>
<path d="M123.985 36.2459C123.591 36.0346 123.264 35.7234 123.041 35.3462C122.815 34.9471 122.697 34.5003 122.697 34.0463C122.697 33.5923 122.815 33.1454 123.041 32.7464C123.263 32.3699 123.59 32.06 123.985 31.8511C124.399 31.6403 124.861 31.5301 125.33 31.5301C125.798 31.5301 126.26 31.6403 126.674 31.8511C127.068 32.059 127.393 32.3693 127.612 32.7464C127.835 33.1463 127.951 33.5928 127.951 34.0463C127.951 34.4998 127.835 34.9462 127.612 35.3462C127.393 35.7239 127.068 36.0354 126.674 36.2459C126.261 36.4596 125.799 36.5715 125.33 36.5715C124.86 36.5715 124.398 36.4596 123.985 36.2459ZM126.316 35.7384C126.607 35.5777 126.844 35.3405 126.999 35.0547C127.161 34.7411 127.245 34.396 127.245 34.0463C127.245 33.6965 127.161 33.3515 126.999 33.0378C126.844 32.7525 126.607 32.5158 126.316 32.3557C126.013 32.1974 125.674 32.1145 125.33 32.1145C124.985 32.1145 124.646 32.1974 124.343 32.3557C124.051 32.5164 123.813 32.7529 123.655 33.0378C123.491 33.3506 123.405 33.696 123.405 34.0463C123.405 34.3966 123.491 34.7419 123.655 35.0547C123.812 35.3401 124.051 35.577 124.343 35.7384C124.646 35.8957 124.985 35.9781 125.33 35.9781C125.674 35.9781 126.013 35.8957 126.316 35.7384Z" fill="#0BAF29"/>
<path d="M134.451 35.9397V37.7154H133.794V36.5183H129.167V37.7154H128.509V35.9397H128.804C129.15 35.9219 129.387 35.6763 129.511 35.1999C129.659 34.5492 129.744 33.887 129.766 33.2215L129.835 31.5627H133.644V35.9338L134.451 35.9397ZM130.219 35.003C130.128 35.4588 129.963 35.771 129.729 35.9397H132.948V32.1619H130.464L130.406 33.2644C130.387 33.8474 130.324 34.4284 130.219 35.003Z" fill="#0BAF29"/>
<path d="M139.135 32.0154C139.494 32.34 139.674 32.819 139.675 33.4523V36.5242H139.007V35.7591C138.842 36.0174 138.601 36.2233 138.315 36.3511C137.977 36.5014 137.607 36.5753 137.235 36.5671C136.66 36.5671 136.202 36.4354 135.861 36.172C135.704 36.0466 135.578 35.8901 135.489 35.7132C135.401 35.5364 135.354 35.3434 135.351 35.1474C135.348 34.9514 135.389 34.757 135.471 34.5776C135.553 34.3982 135.675 34.238 135.828 34.1078C136.143 33.8503 136.649 33.7216 137.345 33.7216H138.978V33.4257C138.978 32.9995 138.853 32.6744 138.605 32.4505C138.355 32.2285 137.988 32.1161 137.515 32.1161C137.193 32.1152 136.875 32.1677 136.572 32.2714C136.289 32.3667 136.028 32.5122 135.801 32.7006L135.493 32.2019C135.771 31.9797 136.091 31.8114 136.435 31.7062C136.809 31.5892 137.201 31.5302 137.595 31.5316C138.262 31.5306 138.775 31.6919 139.135 32.0154ZM138.349 35.7843C138.636 35.6058 138.857 35.3434 138.978 35.0356V34.2262H137.357C136.473 34.2262 136.032 34.5221 136.033 35.114C136.027 35.2461 136.056 35.3774 136.116 35.4965C136.175 35.6156 136.264 35.7189 136.375 35.7977C136.66 35.9791 136.998 36.0669 137.339 36.0477C137.695 36.0562 138.046 35.9646 138.349 35.7843Z" fill="#0BAF29"/>
<path d="M139.999 26.7757H86.5125V27.6828H139.999V26.7757Z" fill="#0BAF29"/>
<path d="M139.999 38.84H86.5125V39.747H139.999V38.84Z" fill="#0BAF29"/>
</svg>
