<svg width="32" height="33" viewBox="0 0 32 33" fill="none" xmlns="http://www.w3.org/2000/svg">
<path fill-rule="evenodd" clip-rule="evenodd" d="M0 16.6188C0 17.2331 0.210691 17.8223 0.585721 18.2567C0.960752 18.6911 1.4694 18.9352 1.99978 18.9352H25.1692L16.5821 28.8771C16.3962 29.0925 16.2487 29.3482 16.1481 29.6296C16.0475 29.9109 15.9957 30.2125 15.9957 30.5171C15.9957 30.8217 16.0475 31.1233 16.1481 31.4047C16.2487 31.6861 16.3962 31.9418 16.5821 32.1571C16.7681 32.3725 16.9888 32.5433 17.2317 32.6599C17.4747 32.7765 17.735 32.8364 17.998 32.8364C18.2609 32.8364 18.5213 32.7765 18.7642 32.6599C19.0072 32.5433 19.2279 32.3725 19.4138 32.1571L31.4125 18.2588C31.5987 18.0436 31.7465 17.788 31.8473 17.5066C31.9481 17.2252 32 16.9235 32 16.6188C32 16.3141 31.9481 16.0124 31.8473 15.731C31.7465 15.4496 31.5987 15.1939 31.4125 14.9788L19.4138 1.08044C19.2279 0.865067 19.0072 0.694227 18.7642 0.577671C18.5213 0.461114 18.2609 0.401123 17.998 0.401123C17.735 0.401123 17.4747 0.461114 17.2317 0.577671C16.9888 0.694227 16.7681 0.865067 16.5821 1.08044C16.3962 1.2958 16.2487 1.55148 16.1481 1.83288C16.0475 2.11427 15.9957 2.41586 15.9957 2.72044C15.9957 3.02502 16.0475 3.32661 16.1481 3.60801C16.2487 3.8894 16.3962 4.14508 16.5821 4.36045L25.1692 14.3024H1.99978C1.4694 14.3024 0.960752 14.5464 0.585721 14.9808C0.210691 15.4153 0 16.0044 0 16.6188Z" fill="white"/>
</svg>
