<svg width="32" height="33" viewBox="0 0 32 33" fill="none" xmlns="http://www.w3.org/2000/svg">
<path fill-rule="evenodd" clip-rule="evenodd" d="M32 16.6188C32 16.0044 31.7893 15.4152 31.4143 14.9808C31.0392 14.5464 30.5306 14.3024 30.0002 14.3024L6.83081 14.3024L15.4179 4.36043C15.6038 4.14506 15.7513 3.88938 15.8519 3.60799C15.9525 3.3266 16.0043 3.025 16.0043 2.72042C16.0043 2.41585 15.9525 2.11425 15.8519 1.83286C15.7513 1.55147 15.6038 1.29579 15.4179 1.08042C15.2319 0.865051 15.0112 0.694212 14.7683 0.577654C14.5253 0.461095 14.265 0.401109 14.002 0.401109C13.7391 0.401109 13.4787 0.461095 13.2358 0.577653C12.9928 0.694211 12.7721 0.865051 12.5862 1.08042L0.58751 14.9788C0.401279 15.1939 0.253524 15.4496 0.152711 15.731C0.0518961 16.0124 9.63541e-07 16.3141 9.45772e-07 16.6188C9.28004e-07 16.9234 0.0518961 17.2251 0.152711 17.5066C0.253524 17.788 0.401278 18.0436 0.58751 18.2588L12.5862 32.1571C12.7721 32.3725 12.9928 32.5433 13.2358 32.6599C13.4787 32.7764 13.7391 32.8364 14.002 32.8364C14.265 32.8364 14.5253 32.7764 14.7683 32.6599C15.0112 32.5433 15.2319 32.3725 15.4179 32.1571C15.6038 31.9417 15.7513 31.6861 15.8519 31.4047C15.9525 31.1233 16.0043 30.8217 16.0043 30.5171C16.0043 30.2125 15.9525 29.9109 15.8519 29.6295C15.7513 29.3481 15.6038 29.0925 15.4179 28.8771L6.83081 18.9352L30.0002 18.9352C30.5306 18.9352 31.0392 18.6911 31.4143 18.2567C31.7893 17.8223 32 17.2331 32 16.6188Z" fill="white"/>
</svg>
