<svg width="140" height="40" viewBox="0 0 140 40" fill="none" xmlns="http://www.w3.org/2000/svg">
<path d="M52.3731 9.5001C52.2631 8.3844 51.8859 7.50147 51.2413 6.85138C50.5967 6.20129 49.7059 5.87379 48.569 5.86886C47.212 5.86886 46.1516 6.3764 45.3878 7.3915C44.624 8.40661 44.2416 9.98052 44.2405 12.1133C44.2405 14.2678 44.6337 15.8526 45.4202 16.8677C45.7724 17.3523 46.2445 17.7457 46.794 18.0124C47.3435 18.2792 47.9534 18.411 48.569 18.3962C49.71 18.3962 50.6307 19.0681 51.2983 18.3962C51.9661 17.7245 53.0516 18.8061 53.1596 17.5661L56.3053 16.8869C56.1758 18.3947 59.2351 17.3782 58.6615 18.5664C58.0879 19.7546 56.3223 20.2681 55.3739 21.0953C54.4256 21.9224 53.7085 22.2228 52.4071 22.6667C51.1056 23.1107 50.1896 23.7588 48.5967 23.7588C46.7463 23.7588 45.1657 23.8816 43.7239 23.3238C42.3351 22.803 41.0907 21.981 40.0878 20.9221C39.0749 19.8245 38.3104 18.5371 37.8426 17.1414C37.3286 15.6617 37.0716 13.9931 37.0716 12.1355C37.048 10.4419 37.3153 8.7561 37.8627 7.14589C38.3374 5.74478 39.1098 4.4534 40.131 3.35332C41.1372 2.29917 42.3793 1.47756 43.764 0.950236C45.1971 0.391888 46.8285 0.113205 48.6584 0.114191C50.1181 0.0972926 51.5703 0.315883 52.9545 0.760833C54.1891 1.16233 55.3301 1.79168 56.313 2.61346C57.2598 3.41399 57.3123 3.46726 57.8288 4.20564C58.4981 5.16007 58.4965 5.3184 59.0917 6.88691L52.3731 9.5001Z" fill="#F4F4F4"/>
<path d="M86.5125 0.512207V23.7588H79.5638V6.14996H73.6902V14.5193C73.6902 17.6761 73.055 20.0574 71.7842 21.6635C70.514 23.2694 68.565 24.0715 65.9384 24.0695C65.293 24.0695 64.6791 24.0488 64.0973 24.0074C63.5319 23.968 62.9701 23.8853 62.418 23.7603L62.7404 18.2423C62.9695 18.2831 63.2016 18.3093 63.4343 18.3207C63.661 18.3311 63.8707 18.3355 64.0652 18.3355C65.0337 18.3355 65.7712 18.0258 66.2778 17.4063C66.7845 16.7868 67.0378 15.7742 67.0366 14.3684V0.512207H86.5125Z" fill="#F4F4F4"/>
<path d="M102.437 0.109629C104.076 0.087218 105.705 0.371175 107.232 0.945679C108.628 1.48098 109.885 2.30268 110.914 3.3532C111.966 4.44239 112.769 5.73005 113.272 7.1339C113.821 8.61366 114.096 10.2823 114.096 12.1398C114.096 13.9974 113.816 15.666 113.257 17.1457C112.744 18.5459 111.942 19.832 110.897 20.9265C109.876 21.9773 108.624 22.798 107.232 23.3296C104.141 24.4463 100.731 24.4463 97.6392 23.3296C96.2508 22.8005 94.9999 21.9864 93.9739 20.9442C92.9255 19.8548 92.128 18.5663 91.6316 17.162C91.0826 15.6744 90.808 14.0008 90.808 12.1413C90.808 10.2818 91.0826 8.61312 91.6316 7.13539C92.1346 5.731 92.9376 4.44282 93.9891 3.3532C95.0193 2.30428 96.2762 1.48412 97.6719 0.950115C99.1882 0.375909 100.806 0.0904389 102.437 0.109629ZM102.437 5.88057C101.784 5.86346 101.136 5.99491 100.546 6.26423C99.9567 6.53348 99.4421 6.93294 99.044 7.42984C98.1877 8.46071 97.7598 10.0292 97.7598 12.1354C97.7598 14.2632 98.201 15.8387 99.084 16.8617C99.4827 17.3491 99.9936 17.7414 100.577 18.0076C101.159 18.2738 101.798 18.4068 102.444 18.3961C103.864 18.3961 105.005 17.8847 105.867 16.8617C106.73 15.8387 107.161 14.2632 107.16 12.1354C107.175 11.2056 107.061 10.278 106.821 9.37719C106.634 8.67115 106.305 8.00733 105.85 7.42393C105.455 6.92596 104.939 6.52739 104.349 6.26232C103.749 5.99736 103.096 5.86296 102.437 5.86873V5.88057Z" fill="#F4F4F4"/>
<path d="M125.336 0.512207V9.25295H133.088V0.512207H140V23.7588H133.088V14.9869H125.336V23.7588H118.396V0.512207H125.336Z" fill="#F4F4F4"/>
<path d="M43.5877 12.4682C43.7418 13.1474 43.8405 13.8473 44.0672 14.5043C44.8829 16.8556 46.3093 17.9225 48.7519 18.0779C51.2191 18.2362 53.3548 17.1441 54.3463 15.0755C54.7334 14.2705 54.9971 14.0841 55.7758 14.6878C56.7766 15.4632 57.8699 16.132 58.9478 16.8097C59.4489 17.1234 59.492 17.4016 59.2222 17.9166C57.0634 22.0184 51.7357 24.7145 46.812 24.1521C41.6107 23.5603 37.1204 19.7988 36.0178 15.1155C35.9492 14.6961 35.7686 14.3011 35.4935 13.9687V21.5153C35.4935 23.4907 35.4935 23.4907 33.3763 23.4907C31.6971 23.4907 30.0178 23.4597 28.3401 23.504C27.6477 23.5233 27.4503 23.2998 27.472 22.6576C27.5166 21.4206 27.4472 20.1791 27.4951 18.942C27.5213 18.2865 27.2916 18.1149 26.6207 18.0956C23.9562 18.0172 23.9577 17.992 23.9562 20.586C23.9562 23.4907 23.9562 23.4907 20.8721 23.4907C19.5382 23.4907 18.2028 23.4582 16.8705 23.504C16.175 23.5292 15.9808 23.285 16.0039 22.6517C16.0471 21.4561 15.9885 20.256 16.0301 19.0589C16.0532 18.396 15.8759 18.1163 15.1049 18.0927C12.4835 18.0068 12.4835 17.9758 12.4835 20.4987C12.4835 23.4922 12.4835 23.4922 9.34856 23.4907C8.05784 23.4907 6.76409 23.4434 5.47651 23.507C4.67929 23.5455 4.4449 23.3147 4.46032 22.5466C4.50966 20.1095 4.48037 17.6724 4.4819 15.2353V13.8251C3.1974 14.0012 2.04859 14.3564 0.835018 14.3357C0.232089 14.3253 -0.0393075 14.1877 0.0285416 13.5751C0.0717251 13.2048 0.0717251 12.8311 0.0285416 12.4608C-0.0886519 11.536 0.124147 11.0314 1.24983 10.7946C2.66078 10.4987 3.39632 9.36968 3.71706 8.03493C3.75686 7.78986 3.7826 7.54287 3.79417 7.29505C4.31228 2.65613 6.77954 0.467611 11.64 0.440976C16.8474 0.411382 22.0548 0.440976 27.2607 0.440976C27.4596 0.8479 27.0725 0.966282 26.8829 1.12905C23.6724 3.87099 25.495 9.31046 29.3779 11.0092C29.8266 11.2045 30.0687 11.1039 30.2553 10.6614C30.4851 10.1169 30.078 10.0696 29.7341 9.89941C26.9215 8.53213 25.6909 5.86862 26.721 3.33977C27.5259 1.36137 29.1882 0.47057 31.273 0.14355C34.7781 -0.406909 37.7094 0.6363 40.1289 3.09117C41.1852 4.63601 42.1474 6.22669 42.5869 8.04825C42.9415 9.51613 43.2561 10.9944 43.5877 12.4682Z" fill="white"/>
<path d="M10.1049 34.753H8.38398V39.6702H4.62146V26.8262H8.38398V31.8173H10.2005L13.394 26.8262H17.3709L13.1843 33.0277L17.4094 39.6702H13.1458L10.1049 34.753Z" fill="black"/>
<path d="M31.6545 26.8262L26.1033 36.7522C25.5173 37.8166 24.8002 38.624 23.9521 39.1745C23.1363 39.7148 22.1678 40.0029 21.1765 40.0002C20.3629 39.9846 19.5595 39.8231 18.8079 39.5237L19.7069 36.8439C20.1403 36.9766 20.5908 37.0508 21.0454 37.0644C21.3901 37.0704 21.7302 36.9881 22.0307 36.8262C22.3504 36.6358 22.6212 36.3789 22.8234 36.0745L17.6221 26.8262H21.619L24.7355 33.0277L27.9737 26.8262H31.6545Z" fill="black"/>
<path d="M35.9383 26.8066L38.3284 30.2929L40.7047 26.8066H45.1025L40.7047 32.9475L45.4849 39.664H41.0239L38.3284 35.8655L35.6514 39.664H31.2983L36.0586 33.1132L31.5975 26.8066H35.9383Z" fill="black"/>
<path d="M59.3801 26.8262V39.6702H55.5944V34.6613H50.4317V39.6702H46.6461V26.8262H50.4317V31.6516H55.5944V26.8262H59.3801Z" fill="black"/>
<path d="M62.2484 26.8262H65.9766V34.3727L71.5036 26.8262H75.0592V39.6702H71.3309V32.1473L65.8239 39.6702H62.2484V26.8262Z" fill="black"/>
<path d="M87.9445 36.2519C87.5476 36.0428 87.2191 35.7311 86.9967 35.3523C86.764 34.9539 86.6452 34.5037 86.6525 34.0471C86.6446 33.592 86.7634 33.143 86.9967 32.7465C87.2197 32.3692 87.5482 32.0592 87.9445 31.8512C88.3651 31.6334 88.8366 31.5228 89.3141 31.5301C89.7269 31.5238 90.1353 31.6093 90.5074 31.7802C90.8516 31.942 91.1401 32.1959 91.3371 32.5112L90.8207 32.8501C90.6607 32.6131 90.4371 32.4223 90.1729 32.2981C89.9062 32.1754 89.6141 32.1126 89.319 32.1146C88.9651 32.1084 88.6166 32.1916 88.3069 32.3558C88.0112 32.514 87.7694 32.7509 87.61 33.0379C87.4458 33.3516 87.3603 33.6976 87.3603 34.0486C87.3603 34.3996 87.4458 34.7457 87.61 35.0593C87.77 35.3449 88.0118 35.5806 88.3069 35.7385C88.6154 35.9008 88.9626 35.9834 89.3141 35.9782C89.6093 35.9809 89.9014 35.9197 90.1686 35.7991C90.4323 35.6777 90.6565 35.4888 90.8159 35.2531L91.3371 35.592C91.1389 35.9082 90.848 36.1617 90.5014 36.3215C90.1311 36.4921 89.7244 36.5777 89.3141 36.5716C88.8366 36.5794 88.3651 36.4693 87.9445 36.2519Z" fill="white"/>
<path d="M96.6799 29.9292V36.5244H95.9708V30.5315H94.3503V29.9292H96.6799Z" fill="white"/>
<path d="M102.549 30.7281C103.033 31.3033 103.276 32.1152 103.277 33.1638C103.297 33.8065 103.163 34.445 102.884 35.0298C102.647 35.512 102.264 35.9144 101.784 36.1839C101.28 36.4521 100.711 36.587 100.134 36.5746C99.453 36.5746 98.9094 36.4552 98.5046 36.2164L98.7882 35.6705C99.1167 35.8776 99.5591 35.9812 100.123 35.9812C100.883 35.9812 101.479 35.7504 101.91 35.2887C102.343 34.827 102.559 34.1567 102.56 33.2778C102.56 33.1149 102.549 32.9359 102.53 32.7406C102.362 33.097 102.075 33.3899 101.715 33.5737C101.32 33.7766 100.877 33.8785 100.429 33.8696C100.014 33.8775 99.6021 33.7934 99.2258 33.624C98.8894 33.4725 98.6052 33.2323 98.4058 32.9315C98.2064 32.6204 98.104 32.2609 98.1113 31.8957C98.1016 31.5251 98.2052 31.1599 98.4082 30.8446C98.6112 30.5293 98.9058 30.2775 99.2555 30.12C99.6312 29.9501 100.043 29.8651 100.458 29.8714C101.368 29.8724 102.065 30.158 102.549 30.7281ZM101.46 33.1135C101.711 32.9974 101.924 32.8185 102.077 32.5956C102.227 32.376 102.306 32.1184 102.303 31.8557C102.303 31.6087 102.23 31.3668 102.091 31.1588C101.939 30.9351 101.726 30.7558 101.474 30.6409C101.167 30.5022 100.831 30.4343 100.492 30.4426C100.051 30.4237 99.6191 30.5629 99.2803 30.8332C99.1276 30.9622 99.007 31.122 98.927 31.3012C98.847 31.4803 98.81 31.6743 98.8173 31.869C98.8088 32.0639 98.8458 32.2582 98.9258 32.4375C99.0058 32.6167 99.127 32.7764 99.2803 32.9049C99.6336 33.1803 100.08 33.3219 100.535 33.3029C100.855 33.3101 101.172 33.2452 101.46 33.1135Z" fill="white"/>
<path d="M108.529 30.7282C109.013 31.3033 109.256 32.1152 109.256 33.1638C109.276 33.8084 109.141 34.4489 108.862 35.0356C108.625 35.5179 108.242 35.9202 107.763 36.1899C107.259 36.4581 106.689 36.5929 106.113 36.5805C105.432 36.5805 104.888 36.4611 104.483 36.2224L104.767 35.6764C105.095 35.8835 105.538 35.9871 106.102 35.9871C106.862 35.9871 107.457 35.7562 107.889 35.2946C108.321 34.8329 108.537 34.1626 108.539 33.2836C108.539 33.1209 108.528 32.9418 108.508 32.7465C108.34 33.103 108.053 33.3961 107.693 33.5796C107.298 33.7825 106.856 33.8844 106.407 33.8755C105.992 33.8833 105.581 33.7993 105.205 33.6299C104.868 33.4788 104.583 33.2386 104.384 32.9374C104.185 32.6263 104.083 32.2667 104.09 31.9015C104.084 31.5254 104.191 31.1555 104.398 30.8362C104.602 30.5275 104.894 30.2807 105.239 30.1244C105.615 29.9546 106.026 29.8695 106.441 29.8758C107.349 29.8738 108.045 30.158 108.529 30.7282ZM107.434 33.1075C107.685 32.9915 107.898 32.8125 108.051 32.5897C108.201 32.37 108.28 32.1124 108.276 31.8498C108.277 31.6028 108.204 31.3608 108.065 31.1528C107.913 30.9291 107.699 30.7499 107.448 30.6349C107.141 30.4965 106.805 30.4286 106.466 30.4367C106.025 30.4177 105.593 30.557 105.254 30.8273C105.102 30.9563 104.981 31.1161 104.901 31.2953C104.821 31.4744 104.784 31.6684 104.792 31.8631C104.782 32.058 104.82 32.2522 104.9 32.4315C104.98 32.6108 105.101 32.7705 105.254 32.8989C105.611 33.1715 106.06 33.309 106.515 33.2851C106.831 33.2969 107.146 33.2381 107.434 33.1135V33.1075Z" fill="white"/>
<path d="M114.161 33.3163C114.347 33.4838 114.494 33.6878 114.592 33.9145C114.689 34.1411 114.734 34.3853 114.725 34.6303C114.736 34.9892 114.634 35.3429 114.433 35.6456C114.232 35.9483 113.94 36.1859 113.596 36.3275C113.166 36.5072 112.7 36.5936 112.231 36.5806C111.751 36.5839 111.274 36.5063 110.822 36.3512C110.423 36.2233 110.06 36.0121 109.757 35.7327L110.1 35.1955C110.36 35.4405 110.671 35.6288 111.013 35.7475C111.402 35.8908 111.815 35.9625 112.231 35.9591C112.794 35.9591 113.229 35.8422 113.538 35.6054C113.689 35.4893 113.81 35.3404 113.89 35.1709C113.97 35.0015 114.009 34.8163 114 34.6303C114.008 34.4465 113.97 34.2634 113.89 34.0964C113.809 33.9294 113.689 33.7832 113.538 33.67C113.229 33.4376 112.766 33.3207 112.142 33.3207H111.652V32.822L113.556 30.5315H110.042V29.9292H114.459V30.4101L112.515 32.7555C113.236 32.794 113.784 32.9809 114.161 33.3163Z" fill="white"/>
<path d="M122.423 32.1617H119.468V36.524H118.77V31.5684H122.423V32.1617Z" fill="white"/>
<path d="M123.985 36.246C123.591 36.0348 123.264 35.7235 123.041 35.3464C122.815 34.9473 122.697 34.5005 122.697 34.0465C122.697 33.5924 122.815 33.1456 123.041 32.7465C123.263 32.3701 123.59 32.0602 123.985 31.8513C124.399 31.6405 124.861 31.5303 125.33 31.5303C125.798 31.5303 126.26 31.6405 126.674 31.8513C127.068 32.0592 127.393 32.3694 127.612 32.7465C127.835 33.1465 127.951 33.593 127.951 34.0465C127.951 34.4999 127.835 34.9464 127.612 35.3464C127.393 35.7241 127.068 36.0356 126.674 36.246C126.261 36.4598 125.799 36.5717 125.33 36.5717C124.86 36.5717 124.398 36.4598 123.985 36.246ZM126.316 35.7385C126.607 35.5779 126.844 35.3406 126.999 35.0549C127.161 34.7413 127.245 34.3962 127.245 34.0465C127.245 33.6967 127.161 33.3516 126.999 33.038C126.844 32.7527 126.607 32.5159 126.316 32.3558C126.013 32.1976 125.674 32.1147 125.33 32.1147C124.985 32.1147 124.646 32.1976 124.343 32.3558C124.051 32.5165 123.813 32.753 123.655 33.038C123.491 33.3508 123.405 33.6962 123.405 34.0465C123.405 34.3967 123.491 34.7421 123.655 35.0549C123.812 35.3402 124.051 35.5772 124.343 35.7385C124.646 35.8959 124.985 35.9783 125.33 35.9783C125.674 35.9783 126.013 35.8959 126.316 35.7385Z" fill="white"/>
<path d="M134.451 35.9396V37.7152H133.794V36.5181H129.167V37.7152H128.509V35.9396H128.804C129.15 35.9218 129.387 35.6762 129.511 35.1997C129.659 34.5491 129.744 33.8868 129.766 33.2213L129.835 31.5625H133.644V35.9336L134.451 35.9396ZM130.219 35.0029C130.128 35.4586 129.963 35.7709 129.729 35.9396H132.948V32.1618H130.464L130.406 33.2642C130.387 33.8473 130.324 34.4282 130.219 35.0029Z" fill="white"/>
<path d="M139.135 32.0156C139.494 32.3402 139.674 32.8192 139.675 33.4525V36.5244H139.007V35.7593C138.842 36.0176 138.601 36.2235 138.315 36.3513C137.977 36.5016 137.607 36.5755 137.235 36.5673C136.66 36.5673 136.202 36.4356 135.861 36.1722C135.704 36.0467 135.578 35.8903 135.489 35.7134C135.401 35.5366 135.354 35.3436 135.351 35.1476C135.348 34.9516 135.389 34.7572 135.471 34.5778C135.553 34.3984 135.675 34.2382 135.828 34.108C136.143 33.8505 136.649 33.7218 137.345 33.7218H138.978V33.4259C138.978 32.9997 138.853 32.6746 138.605 32.4507C138.355 32.2287 137.988 32.1163 137.515 32.1163C137.193 32.1154 136.875 32.1679 136.572 32.2716C136.289 32.3669 136.028 32.5124 135.801 32.7008L135.493 32.2021C135.771 31.9799 136.091 31.8116 136.435 31.7064C136.809 31.5894 137.201 31.5304 137.595 31.5318C138.262 31.5308 138.775 31.6921 139.135 32.0156ZM138.349 35.7845C138.636 35.606 138.857 35.3436 138.978 35.0358V34.2264H137.357C136.473 34.2264 136.032 34.5223 136.033 35.1142C136.027 35.2463 136.056 35.3776 136.116 35.4967C136.175 35.6158 136.264 35.7191 136.375 35.7979C136.66 35.9793 136.998 36.0671 137.339 36.0479C137.695 36.0564 138.046 35.9648 138.349 35.7845Z" fill="white"/>
<path d="M139.999 26.7759H86.5125V27.683H139.999V26.7759Z" fill="white"/>
<path d="M139.999 38.8398H86.5125V39.7469H139.999V38.8398Z" fill="white"/>
</svg>
