<svg width="35" height="20" viewBox="0 0 35 20" fill="none" xmlns="http://www.w3.org/2000/svg">
<path fill-rule="evenodd" clip-rule="evenodd" d="M33.499 1.35427C33.7373 0.573628 33.499 0 32.3647 0H28.6139C27.6601 0 27.2204 0.495529 26.982 1.04194C26.982 1.04194 25.0744 5.60867 22.3723 8.575C21.4981 9.43371 21.1007 9.707 20.6239 9.707C20.3854 9.707 20.0277 9.43371 20.0277 8.65314V1.35427C20.0277 0.4175 19.7636 0 18.9687 0H13.0745C12.4785 0 12.12 0.434772 12.12 0.846829C12.12 1.73487 13.4711 1.93967 13.6103 4.43773V9.86314C13.6103 11.0526 13.3916 11.2683 12.9147 11.2683C11.6432 11.2683 8.5501 6.68117 6.71561 1.4323C6.3561 0.4121 5.99551 0 5.0369 0H1.28603C0.214349 0 0 0.495529 0 1.04194C0 2.01777 1.27163 6.8577 5.92091 13.2589C9.02041 17.6303 13.3874 20 17.3611 20C19.7454 20 20.0404 19.4737 20.0404 18.5671V15.2631C20.0404 14.2106 20.2663 14.0004 21.0213 14.0004C21.5776 14.0004 22.5313 14.2737 24.7566 16.3814C27.2999 18.8794 27.7191 20 29.1496 20H32.9006C33.9721 20 34.508 19.4737 34.1989 18.435C33.8606 17.3999 32.6464 15.898 31.0353 14.1176C30.161 13.1027 28.8496 12.0099 28.4521 11.4633C27.8959 10.7609 28.0549 10.4486 28.4521 9.82414C28.4521 9.82414 33.0221 3.50096 33.499 1.35427Z" fill="white"/>
</svg>
