<svg width="28" height="28" viewBox="0 0 28 28" fill="none" xmlns="http://www.w3.org/2000/svg">
<circle cx="14" cy="14" r="13.5" fill="white" stroke="#5EB863"/>
<ellipse cx="13.9999" cy="14" rx="10.2667" ry="10.2667" fill="#5EB863"/>
<path d="M20.3849 18.2062V18.2033C20.3849 18.2033 17.9092 15.735 17.9077 15.7338C17.7114 15.5377 17.3975 15.542 17.2044 15.7351L16.0648 16.8773C15.6218 17.3196 15.0505 16.9271 13.954 16.0346C13.2285 15.4441 12.3938 14.6501 11.6701 13.7548C11.1622 13.1267 10.7131 12.4671 11.1771 12.0041L12.3211 10.8637L12.322 10.8613C12.5271 10.6565 12.5072 10.3428 12.3199 10.1556V10.1528C12.3199 10.1528 9.77262 7.61335 9.7712 7.61182C9.57492 7.4159 9.26111 7.42026 9.06789 7.61313L7.91992 8.759C7.44697 9.34982 6.39589 12.1657 10.902 16.7762C15.649 21.6334 18.7121 20.5944 19.2395 20.0463L20.3863 18.9141L20.3872 18.9118C20.5924 18.7069 20.5722 18.3935 20.3849 18.2062Z" fill="white"/>
</svg>
