<svg width="25" height="25" viewBox="0 0 25 25" fill="none" xmlns="http://www.w3.org/2000/svg">
<path d="M24.7161 20.5475V20.5421C24.7161 20.5421 19.9794 15.8195 19.9764 15.8172C19.6009 15.4421 19.0003 15.4502 18.6308 15.8197L16.4505 18.0049C15.6029 18.8512 14.51 18.1003 12.412 16.3927C11.024 15.2629 9.42696 13.7437 8.04227 12.0309C7.07052 10.8292 6.21119 9.56717 7.09894 8.68126C7.10124 8.67896 9.2882 6.50163 9.28778 6.49933L9.28946 6.49474C9.68192 6.103 9.64388 5.50286 9.28549 5.1447V5.13928C9.28549 5.13928 4.41189 0.28063 4.40917 0.27771C4.03363 -0.0971393 3.43324 -0.0887954 3.06355 0.280213L0.867183 2.47257C-0.0376964 3.60296 -2.0487 8.9904 6.57273 17.8116C15.655 27.1048 21.5156 25.1168 22.5245 24.0682C22.5245 24.0682 24.7186 21.904 24.7186 21.9019L24.7205 21.8976C25.1129 21.5056 25.0743 20.9059 24.7161 20.5475Z" fill="white"/>
</svg>
