<svg width="40" height="30" viewBox="0 0 40 30" fill="none" xmlns="http://www.w3.org/2000/svg">
<path d="M0.5 3.75C0.5 2.89884 0.860367 2.07547 1.51354 1.46312C2.16781 0.849741 3.0617 0.5 4 0.5H36C36.9383 0.5 37.8322 0.849741 38.4865 1.46312C39.1396 2.07547 39.5 2.89884 39.5 3.75C39.5 4.60116 39.1396 5.42453 38.4865 6.03688C37.8322 6.65026 36.9383 7 36 7H4C3.0617 7 2.16781 6.65026 1.51354 6.03688C0.860367 5.42453 0.5 4.60116 0.5 3.75ZM0.5 15C0.5 14.1488 0.860367 13.3255 1.51354 12.7131C2.16781 12.0997 3.0617 11.75 4 11.75H36C36.9383 11.75 37.8322 12.0997 38.4865 12.7131C39.1396 13.3255 39.5 14.1488 39.5 15C39.5 15.8512 39.1396 16.6745 38.4865 17.2869C37.8322 17.9003 36.9383 18.25 36 18.25H4C3.0617 18.25 2.16781 17.9003 1.51354 17.2869C0.860367 16.6745 0.5 15.8512 0.5 15ZM0.5 26.25C0.5 25.3988 0.860367 24.5755 1.51354 23.9631C2.16781 23.3497 3.0617 23 4 23H36C36.9383 23 37.8322 23.3497 38.4865 23.9631C39.1396 24.5755 39.5 25.3988 39.5 26.25C39.5 27.1012 39.1396 27.9245 38.4865 28.5369C37.8322 29.1503 36.9383 29.5 36 29.5H4C3.0617 29.5 2.16781 29.1503 1.51354 28.5369C0.860367 27.9245 0.5 27.1012 0.5 26.25Z" fill="white" stroke="#5EB863"/>
</svg>
