<svg id="Слой_1" data-name="Слой 1" xmlns="http://www.w3.org/2000/svg" viewBox="0 0 120 120"><defs><style>.cls-1{fill:#fff;}.cls-2{fill:#41ac47;}.cls-3{fill:#9c9d9c;}.cls-4{fill:#fdfefd;}</style></defs><title>фавикон</title><rect class="cls-1" width="120" height="120" rx="28.31"/><path class="cls-2" d="M85.53,58.63c.51,4.41.79,9,4.88,11.83,5,3.44,10.66,3.15,13.85-1.73,3.38-5.18,5.46-3.17,8.93-.79,4.69,3.23,1.47,5.83-.37,8.28C102.6,89.84,83,88,73.94,72.63c-.86-1.46-1.5-3.06-3.51-4.47-.15,2.39-.76,4.85-.37,7.14,1.28,7.68-2.46,9-9.14,8.73-4.74-.18-6.65-1.28-6.07-6.16.28-2.37.9-5.45-3.35-5.48-4,0-4,2.8-3.64,5.34,1.08,7.45-4,5.89-8.28,6.17-4.61.31-7.54-.46-6.71-6.12.36-2.43.75-5.34-3.43-5.43s-4.13,2.52-3.76,5.17c1.16,8-4.58,5.82-8.86,6.4-6,.81-6.19-2.68-5.94-7,.17-2.85-.05-5.72.06-8.58.13-3.27-.21-5.77-4.58-4.79-1.59.35-3.87,1.31-4.29-1.56-.3-2-.74-4.22,1.87-5.32,4.52-1.92,5.53-5.87,5.74-10.22C10,39.36,14.35,35,20.77,34.41c10.32-.89,20.76-.39,31.15-.4,1.41,0,1.16,1.4,1.33,2.35-4.71,5-3,9.85-.25,14.73.64-4.53-.9-9.18,1.57-13.5C63,31,68.21,31.39,79.91,39.74,82.65,45.78,85,51.94,85.53,58.63ZM70.39,65.72l-.34-.29-.06.49Z"/><path class="cls-3" d="M85.53,58.63c-.56-6.69-2.88-12.85-5.62-18.89,9.7-8,24.48-7.86,32.47.21,2.09,2.11,3.49,4.31.57,6.39-2.53,1.81-3.42,6.94-8.38,4.41C93.11,44.93,89.12,46.63,85.53,58.63Z"/><path class="cls-4" d="M54.57,37.59c-2.47,4.32-.93,9-1.57,13.5-2.74-4.88-4.46-9.77.25-14.73Z"/><polygon class="cls-4" points="70.39 65.72 69.99 65.92 70.05 65.43 70.39 65.72"/></svg>